PathFileType	4	(X/Y/Z)	/Users/niels/Desktop/University/Third Semester/Perception and Action/Exam/Gymnastics Motion Tracking/Code for Gym Tracking/Analyzed Data/Webcam_Backflip/id3_1_trajectory_Sports2D/id3_1_trajectory_Sports2D_px_person00.trc
DataRate	CameraRate	NumFrames	NumMarkers	Units	OrigDataRate	OrigDataStartFrame	OrigNumFrames
29.8125	29.8125	9	22	m	29.8125	60	160
Frame#	Time	Hip			RHip			RKnee			RAnkle			RBigToe			RSmallToe			RHeel			LHip			LKnee			LAnkle			LBigToe			LSmallToe			LHeel			Neck			Head			Nose			RShoulder			RElbow			RWrist			LShoulder			LElbow			LWrist		
		X1	Y1	Z1	X2	Y2	Z2	X3	Y3	Z3	X4	Y4	Z4	X5	Y5	Z5	X6	Y6	Z6	X7	Y7	Z7	X8	Y8	Z8	X9	Y9	Z9	X10	Y10	Z10	X11	Y11	Z11	X12	Y12	Z12	X13	Y13	Z13	X14	Y14	Z14	X15	Y15	Z15	X16	Y16	Z16	X17	Y17	Z17	X18	Y18	Z18	X19	Y19	Z19	X20	Y20	Z20	X21	Y21	Z21	X22	Y22	Z22
60	2.012578616352201	1.0620619462595569	-0.3992242741702118	0.0	1.0676273370961726	-0.40035304781794745	0.0	1.096512308014121	-0.29956581692230216	0.0	1.153388064941315	-0.36292954133556626	0.0	1.182240824316096	-0.34573318705963046	0.0	1.1858321344224956	-0.3538103675657666	0.0	1.157941819016488	-0.37915124427078817	0.0	1.0543280526089795	-0.39643166342786124	0.0	1.085654773550203	-0.2986028471116254	0.0	1.1454564593250933	-0.36058719402062517	0.0	1.1768028376911523	-0.36406040401260387	0.0	1.1735998155179137	-0.367258351840478	0.0	1.151153563435801	-0.3794775657040632	0.0	0.9424503279424966	-0.35045280073756163	0.0	0.8728595009721065	-0.3426797622159685	0.0	0.9084773770559557	-0.3205630248531812	0.0	0.959057427974305	-0.3388251880432907	0.0	1.0291486581099907	-0.30555361842196777	0.0	1.0612892226715929	-0.2506948527146556	0.0	0.9518667738594638	-0.3510536534325024	0.0	1.0112175431468062	-0.3179882038486878	0.0	1.046540230695057	-0.27517854358945953	0.0
61	2.0461215932914043	1.0743014465065261	-0.37879614561123637	0.0	1.079790221102513	-0.37902284773791517	0.0	1.0725960930057512	-0.27583920917030047	0.0	1.1495707430728515	-0.31367594641126906	0.0	1.1706356334196992	-0.28379157109104675	0.0	1.1771195432217594	-0.29194602848482437	0.0	1.1582676262131986	-0.32725545310196236	0.0	1.0627611924251983	-0.37643442015772566	0.0	1.0619622541795206	-0.2779625516743873	0.0	1.1391733275387272	-0.31367300090423383	0.0	1.1631326929014667	-0.31282869582504386	0.0	1.160820988799765	-0.3167991457411147	0.0	1.1514620496946764	-0.3297480635044406	0.0	0.9541562980435128	-0.35854082881822397	0.0	0.8931338985085572	-0.3605391633395322	0.0	0.9213487166887657	-0.33679776896564495	0.0	0.9709554965267024	-0.3454240239408867	0.0	1.0351520780677048	-0.30830572748648793	0.0	1.0612054593552789	-0.25573960098089965	0.0	0.9635864097106576	-0.35728120004744346	0.0	1.0119899618292363	-0.32086507718709417	0.0	1.0410912251963171	-0.28208695481818397	0.0
62	2.079664570230608	1.0840038200624929	-0.35816264232342704	0.0	1.0886244316504265	-0.35739359058216524	0.0	1.04967612302188	-0.2692620128962662	0.0	1.1329888148747362	-0.2795722145817465	0.0	1.1417129001567796	-0.24538521490769408	0.0	1.1504199045635728	-0.25177491869659663	0.0	1.1435327765291752	-0.2884655098472638	0.0	1.069493291289618	-0.3562987130448926	0.0	1.0403272199150047	-0.27226113002215924	0.0	1.1204897221208732	-0.2816114364364677	0.0	1.1330509294421305	-0.2828663096979847	0.0	1.1310731563758625	-0.28689838423685404	0.0	1.136820731414667	-0.29234176480929547	0.0	0.9728785429484836	-0.36919715363172	0.0	0.9232030568630862	-0.38325482590886323	0.0	0.9420516837607389	-0.3582089868124054	0.0	0.9884618957458324	-0.35469979868890344	0.0	1.040218442080917	-0.31076151160202675	0.0	1.0620656655485896	-0.2633309772749296	0.0	0.9822615609918969	-0.36523633646410447	0.0	1.0165715013574514	-0.3238171007613643	0.0	1.0389657921901922	-0.29003921220967127	0.0
63	2.113207547169811	1.0897453385034506	-0.3381419936336283	0.0	1.092577592200987	-0.3366209443387227	0.0	1.0306176808392216	-0.2776828177982576	0.0	1.1056333639914384	-0.2621259734827319	0.0	1.1004766981640857	-0.23252002177665043	0.0	1.1100835157322213	-0.23561280586853717	0.0	1.1158270583052043	-0.26492976832234716	0.0	1.0746495566610925	-0.33684762175231014	0.0	1.0242718536153779	-0.2792050317651666	0.0	1.0925679551482783	-0.26543711885608384	0.0	1.0913736874102349	-0.2728748430232589	0.0	1.0896816226986823	-0.2764295698606458	0.0	1.1093958463917977	-0.26905409758059484	0.0	0.99845689705041	-0.3803343099784497	0.0	0.9628910838183903	-0.40790099973930005	0.0	0.9705727942783787	-0.38244282631188375	0.0	1.010844469933058	-0.36462583962006706	0.0	1.0432866341369054	-0.3128433275544847	0.0	1.0638359908181911	-0.2742327621740384	0.0	1.0081313733850823	-0.37349602052071035	0.0	1.02654960487356	-0.32622878256974597	0.0	1.0420835154293975	-0.2992734700917218	0.0
64	2.1467505241090143	1.0912668254346147	-0.3197021841125404	0.0	1.0915834801093895	-0.31791826732834266	0.0	1.0168974784152085	-0.29695010807693645	0.0	1.0710703626153182	-0.26013641561445605	0.0	1.0531809696388303	-0.24239409730443492	0.0	1.0620841782829455	-0.24133590905725216	0.0	1.0790976162939312	-0.25627736943682555	0.0	1.0785609685142363	-0.31905654311109544	0.0	1.0153836661269462	-0.29522788107099834	0.0	1.060074294663374	-0.2636676384875385	0.0	1.0444774855830632	-0.27878960505979367	0.0	1.0433247630306066	-0.2814576263331075	0.0	1.0737416667185542	-0.2593090564923933	0.0	1.0294136388360755	-0.3901173622421463	0.0	1.010224359037864	-0.431278028514426	0.0	1.0055960680444815	-0.4066469039672813	0.0	1.0364918099696205	-0.37349826466254754	0.0	1.0443193679224334	-0.3153541447282562	0.0	1.065604327185112	-0.28912858926535673	0.0	1.0398014387703165	-0.38067985123660036	0.0	1.0422409919704512	-0.3275142666731712	0.0	1.0504449967154101	-0.31022132419142057	0.0
65	2.180293501048218	1.0892142163978438	-0.3041960000292947	0.0	1.0866978235016913	-0.3028063777022288	0.0	1.0089996974502768	-0.3225391901555083	0.0	1.0337795168599024	-0.2716840203136451	0.0	1.0064655139470482	-0.27020250554404657	0.0	1.013150979090737	-0.26503060148991764	0.0	1.0381814817238129	-0.2615578554813846	0.0	1.081237726713312	-0.3041050463169991	0.0	1.0135334241304148	-0.316836318448228	0.0	1.0280876278946822	-0.2741686742193457	0.0	0.9991505087307111	-0.29708182316383414	0.0	0.9988640364588259	-0.2984972027989575	0.0	1.0356366319790018	-0.26198561574734647	0.0	1.0634018405777408	-0.39711607877140476	0.0	1.061906791010894	-0.4501697953118789	0.0	1.0449455038743074	-0.427734174884001	0.0	1.0634141799383627	-0.3801176695150313	0.0	1.0443299085817102	-0.31961217553779736	0.0	1.0660954761150134	-0.308305456551957	0.0	1.0745534318912464	-0.3853983996802885	0.0	1.0628606604085988	-0.32726977091876824	0.0	1.062672610586483	-0.3230542713708105	0.0
66	2.213836477987421	1.0845338013490484	-0.29361848393627965	0.0	1.079366958827109	-0.2933206001886898	0.0	1.007134991914579	-0.3508467066704417	0.0	0.9987064693160701	-0.29599036106114385	0.0	0.9670948318968268	-0.311958047276113	0.0	0.9703378128852368	-0.3036208443278993	0.0	0.9983126477950682	-0.2810406676229956	0.0	1.0822955645005787	-0.2937124859254536	0.0	1.0177889804053124	-0.3414884173697386	0.0	1.0012261321888287	-0.2958356176461556	0.0	0.9620300221918364	-0.32623160152718816	0.0	0.962805977300942	-0.3260120276967848	0.0	1.0008221644055801	-0.27712767759152457	0.0	1.097794704254153	-0.40020593750888606	0.0	1.1142003767373003	-0.46137703648506506	0.0	1.0862281900719746	-0.4425870620432491	0.0	1.0896875535830963	-0.38375301796096445	0.0	1.0450663916338125	-0.3272877377388003	0.0	1.0645886993438152	-0.33209906577067344	0.0	1.1090903461867958	-0.38635440734116305	0.0	1.0867418117799226	-0.32559392560722633	0.0	1.0770341195767432	-0.3378601984910715	0.0
67	2.2473794549266244	1.0781974902592848	-0.2903430851652214	0.0	1.0710586523807932	-0.29158312402239556	0.0	1.011315291765226	-0.37959109410852665	0.0	0.9710274470633214	-0.3333290806858388	0.0	0.9415207549598822	-0.3649543987642464	0.0	0.9405519183532154	-0.3550826770236316	0.0	0.9650946276997266	-0.31594198865951445	0.0	1.0812387827564058	-0.2900943539828956	0.0	1.0267023189973303	-0.3676212371328613	0.0	0.9826360984427659	-0.32851170734134505	0.0	0.9387763397344985	-0.36584079280008186	0.0	0.9404610745254723	-0.3636239866091928	0.0	0.9738219497236809	-0.3058157217820174	0.0	1.1299958957176373	-0.39877514631386035	0.0	1.163471736504856	-0.4624049344896765	0.0	1.1270090020401888	-0.44875296833383005	0.0	1.1137389909765443	-0.38433971918388204	0.0	1.0486542094185356	-0.3400603644913305	0.0	1.0620625243016821	-0.3610648144781629	0.0	1.1401340267930142	-0.382854324592877	0.0	1.1109757534100757	-0.3236654420187069	0.0	1.0920874935903724	-0.3549025446123813	0.0
68	2.280922431865828	1.071269046932012	-0.29621397975728025	0.0	1.0632089208067943	-0.29881959550393133	0.0	1.0207284533761702	-0.4076995345572698	0.0	0.9555664671043979	-0.3831840564401368	0.0	0.9345902373649273	-0.42625481629304945	0.0	0.9293187185661108	-0.4166630077514147	0.0	0.9441756571377388	-0.3663186810166554	0.0	1.077939833311244	-0.2952086110049494	0.0	1.0380607234883528	-0.3943272054406487	0.0	0.9732774599727412	-0.37147002533565465	0.0	0.9325836783327671	-0.4145264848490932	0.0	0.9344934075407512	-0.4101441025660931	0.0	0.9571620896571673	-0.3483347709901772	0.0	1.1576129189790634	-0.3933331183508858	0.0	1.2064976353504153	-0.4528231707561131	0.0	1.164690622201949	-0.4457263155686793	0.0	1.1344643858447359	-0.3828825972410524	0.0	1.0570370902727113	-0.3588833536246782	0.0	1.0619993781530808	-0.39534072763178446	0.0	1.1649787343305988	-0.37558480003739475	0.0	1.131391354214652	-0.32413523369857056	0.0	1.1069151990118595	-0.3746706983480521	0.0
